<?xml version="1.0" standalone="no"?>
<!DOCTYPE svg PUBLIC "-//W3C//DTD SVG 20010904//EN"
 "http://www.w3.org/TR/2001/REC-SVG-20010904/DTD/svg10.dtd">
<svg version="1.0" xmlns="http://www.w3.org/2000/svg"
 width="300.000000pt" height="300.000000pt" viewBox="0 0 300.000000 300.000000"
 preserveAspectRatio="xMidYMid meet">
<metadata>
Created by potrace 1.10, written by Peter Selinger 2001-2011
</metadata>
<g transform="translate(0.000000,300.000000) scale(0.100000,-0.100000)"
fill="#000000" stroke="none">
<path d="M1520 1799 c-19 -5 -132 -8 -252 -8 l-216 2 -119 -61 c-148 -75 -167
-79 -230 -52 l-49 21 -135 -20 c-74 -11 -188 -27 -254 -36 -66 -8 -134 -17
-151 -20 l-30 -5 -1 -140 c0 -78 3 -142 7 -145 3 -2 107 27 230 65 281 87 285
87 350 59 38 -16 54 -19 63 -10 17 17 27 13 27 -9 0 -20 27 -40 55 -40 9 0 31
11 49 25 54 41 200 105 241 105 l38 0 -7 -42 c-4 -24 -20 -71 -36 -105 -16
-35 -25 -63 -20 -63 11 0 35 44 55 99 l14 36 0 -67 c1 -39 6 -70 13 -74 11 -7
10 18 -5 185 -2 20 5 25 43 35 25 7 79 32 120 55 41 24 93 54 115 66 31 18 41
30 43 54 l3 31 252 -2 c223 -3 252 -5 255 -19 2 -9 -4 -24 -14 -33 -14 -15
-45 -17 -253 -16 -207 1 -236 0 -239 -14 -3 -14 20 -16 195 -16 109 0 228 3
265 7 l68 6 -3 62 -2 62 -210 6 c-125 4 -211 11 -213 17 -4 12 -14 11 -62 -1z
m-450 -38 c0 -16 -30 -41 -49 -41 -23 0 -41 -20 -41 -45 0 -29 19 -45 55 -46
l30 -1 -34 -10 c-19 -5 -45 -8 -58 -5 -13 2 -26 0 -29 -4 -3 -5 -16 -9 -29 -9
-17 0 -23 -4 -19 -14 4 -11 -5 -17 -31 -22 -20 -3 -32 -9 -27 -13 15 -9 -96
-81 -124 -81 -12 0 -29 7 -37 15 -8 8 -17 11 -20 8 -4 -3 -14 -2 -24 2 -10 5
-20 8 -23 7 -3 0 -5 29 -4 66 1 59 3 66 24 74 13 5 32 6 44 2 21 -6 21 -6 1
10 -26 20 -17 20 30 0 53 -22 92 -12 220 55 108 57 145 70 145 52z m369 -20
c11 -7 10 -11 -7 -20 -11 -6 -33 -12 -49 -12 -21 -2 -19 -3 12 -8 22 -3 42 -3
43 2 2 4 9 7 15 7 6 0 4 -8 -6 -17 -10 -11 -38 -18 -77 -21 -40 -3 -63 -9 -67
-18 -5 -15 -33 -20 -33 -6 0 4 6 14 13 21 10 11 8 12 -10 7 -12 -4 -24 -2 -28
4 -3 5 -1 10 4 10 6 0 11 4 11 9 0 5 -16 8 -35 5 -28 -3 -35 -1 -35 13 0 13
-6 10 -20 -12 -17 -26 -63 -52 -97 -54 -7 -1 -17 7 -22 18 -8 15 -5 25 17 48
l28 29 165 2 c90 1 170 -2 178 -7z m-789 -69 c0 -5 -39 -14 -87 -20 -49 -6
-164 -23 -258 -37 -93 -13 -179 -25 -190 -24 -58 1 39 21 245 48 198 27 252
34 283 40 4 0 7 -3 7 -7z m594 -18 c16 -43 -3 -71 -61 -89 -20 -5 -23 -2 -24
22 l-2 28 -4 -27 c-3 -20 -8 -25 -21 -21 -38 14 -44 52 -7 45 17 -3 25 0 25 9
0 8 9 3 20 -11 l20 -25 -6 32 c-6 28 -3 34 17 42 33 13 36 13 43 -5z m-84 2
c0 -2 -20 -11 -45 -19 -48 -17 -64 -6 -17 11 28 11 62 15 62 8z m-679 -49
c-20 -20 -12 -65 15 -90 14 -14 22 -27 18 -29 -11 -5 -244 -80 -327 -104 -31
-9 -60 -14 -63 -11 -13 13 -11 167 2 185 7 9 14 12 14 7 0 -6 10 -11 21 -12
20 -2 20 -1 3 11 -15 12 -7 15 62 24 43 6 96 13 117 15 21 2 40 6 42 9 2 2 28
5 56 5 36 0 48 -2 40 -10z m103 -3 c21 -20 20 -43 -1 -66 -20 -22 -51 -23 -75
-1 -20 18 -23 36 -8 64 13 23 62 26 84 3z m474 -6 c26 -26 12 -45 -54 -73 -36
-15 -92 -45 -126 -67 -67 -43 -92 -45 -96 -8 -2 21 8 31 66 67 68 43 168 91
188 92 5 1 15 -4 22 -11z"/>
<path d="M885 1672 c-52 -25 -75 -41 -66 -46 7 -5 20 -2 29 6 9 8 31 20 47 27
29 11 86 50 75 51 -3 0 -42 -17 -85 -38z"/>
<path d="M150 1516 c0 -25 61 -82 97 -89 38 -7 80 2 95 21 11 13 11 14 -1 8
-8 -5 -17 -3 -23 5 -8 11 -9 10 -4 -3 8 -26 -9 -22 -21 4 -8 19 -10 20 -16 5
-3 -9 -2 -17 3 -17 6 0 10 -4 10 -10 0 -5 -7 -10 -15 -10 -8 0 -15 4 -15 10 0
5 -7 7 -15 4 -23 -9 -42 12 -40 46 1 24 -1 28 -12 18 -10 -8 -11 -13 -2 -18 8
-6 8 -9 0 -14 -7 -5 -17 6 -26 26 -9 21 -14 26 -15 14z"/>
<path d="M527 1593 c-22 -6 -19 -32 5 -47 26 -16 57 16 38 38 -7 9 -15 15 -19
15 -3 -1 -14 -3 -24 -6z"/>
<path d="M2865 1778 c-24 -6 -195 -8 -438 -6 -331 3 -397 1 -392 -10 3 -8 5
-36 5 -62 l0 -49 28 10 c17 6 181 8 410 7 358 -3 382 -2 382 15 0 14 9 17 45
17 38 0 45 3 45 20 0 19 -8 20 -377 23 l-378 2 378 3 c354 2 378 3 375 20 -4
20 -29 24 -83 10z m-775 -58 c0 -5 7 -10 16 -10 9 0 12 5 8 12 -5 8 57 10 257
5 145 -4 311 -8 369 -9 58 -1 -62 -5 -266 -8 -271 -4 -375 -8 -386 -17 -11
-10 -17 -10 -26 -1 -18 18 -14 38 8 38 11 0 20 -4 20 -10z m692 -37 c-40 -2
-103 -2 -140 0 -37 2 -4 3 73 3 77 0 107 -2 67 -3z"/>
</g>
</svg>
